<svg width="55" height="20" viewBox="0 0 55 20" fill="none" xmlns="http://www.w3.org/2000/svg">
<path d="M15.7209 0.0055927H3.34055L0 15.3887H4.64969L6.98864 4.61969H13.9547C16.099 4.61969 17.4646 6.34228 17.0047 8.46476L16.336 11.5408L16.3191 11.6191C15.8225 13.7081 13.7375 15.3859 11.6186 15.3859H4.65251L3.65091 20H11.3816C15.673 20 19.8994 16.5548 20.8192 12.307L21.8208 7.69295C22.7434 3.44519 20.0123 0 15.7209 0V0.0055927Z" fill="white"/>
<path d="M33.181 7.69295L32.1796 12.307C31.2572 16.5548 33.9793 20 38.2584 20H50.6559L53.2906 7.86633H43.9932L42.9918 12.4804H47.6405L47.0114 15.3831H40.0384C37.8974 15.3831 36.5377 13.6605 37.0003 11.538L37.6689 8.46197L37.7084 8.29418C38.2415 6.2472 40.2951 4.61409 42.3768 4.61409H53.9986L55 0H42.6025C38.3233 0 34.1062 3.44519 33.1838 7.69295H33.181Z" fill="white"/>
<path d="M29.6745 0.00279622H28.2427L23 4.61689H25.8713C26.667 4.61689 27.1748 5.30481 27.0021 6.15492L24.2119 20H28.5254L31.9333 3.07606C32.2762 1.37584 31.2632 0 29.6692 0L29.6745 0.00279622Z" fill="white"/>
</svg>
